<svg width="23" height="21" viewBox="0 0 23 21" fill="none" xmlns="http://www.w3.org/2000/svg">
<path fill-rule="evenodd" clip-rule="evenodd" d="M21.4897 4.29L19.3197 13.52H6.89975L4.73975 4.29H21.4897Z" stroke="white" stroke-width="1.4" stroke-linecap="square" stroke-linejoin="round"/>
<path d="M17.3797 19.94C18.3186 19.94 19.0797 19.1789 19.0797 18.24C19.0797 17.3011 18.3186 16.54 17.3797 16.54C16.4408 16.54 15.6797 17.3011 15.6797 18.24C15.6797 19.1789 16.4408 19.94 17.3797 19.94Z" stroke="white" stroke-width="1.2" stroke-linecap="square" stroke-linejoin="round"/>
<path d="M8.8499 19.94C9.78879 19.94 10.5499 19.1789 10.5499 18.24C10.5499 17.3011 9.78879 16.54 8.8499 16.54C7.91102 16.54 7.1499 17.3011 7.1499 18.24C7.1499 19.1789 7.91102 19.94 8.8499 19.94Z" stroke="white" stroke-width="1.2" stroke-linecap="square" stroke-linejoin="round"/>
<path d="M1.02979 1.38H4.04979L5.45978 7.36" stroke="white" stroke-width="1.4" stroke-linecap="square" stroke-linejoin="round"/>
</svg>
