<svg width="35" height="34" viewBox="0 0 35 34" fill="none" xmlns="http://www.w3.org/2000/svg">
<g clip-path="url(#clip0_3501_1278)">
<mask id="mask0_3501_1278" style="mask-type:alpha" maskUnits="userSpaceOnUse" x="0" y="0" width="35" height="34">
<path fill-rule="evenodd" clip-rule="evenodd" d="M17.3235 0.019043C7.93995 0.019043 0.333008 7.62599 0.333008 17.0097C0.333008 26.3931 7.93995 34 17.3235 34C26.707 34 34.3138 26.3931 34.3138 17.0097C34.3138 7.62599 26.707 0.019043 17.3235 0.019043Z" fill="white"/>
</mask>
<g mask="url(#mask0_3501_1278)">
<path fill-rule="evenodd" clip-rule="evenodd" d="M17.3235 0.019043C7.93995 0.019043 0.333008 7.62599 0.333008 17.0097C0.333008 26.3931 7.93995 34 17.3235 34C26.707 34 34.3138 26.3931 34.3138 17.0097C34.3138 7.62599 26.707 0.019043 17.3235 0.019043Z" fill="url(#paint0_radial_3501_1278)"/>
</g>
<path fill-rule="evenodd" clip-rule="evenodd" d="M14.5495 25.8263C14.3674 25.9469 14.1606 25.9611 13.9272 25.9598C13.9713 25.7547 14.0076 25.575 14.0509 25.3972C14.059 25.3641 14.0667 25.3131 14.1197 25.3131C14.281 25.3131 14.4238 25.3151 14.5717 25.3691C14.7246 25.4248 14.7162 25.7159 14.5495 25.8263ZM14.2314 26.8894C14.2711 27.0479 14.2913 27.2114 14.3152 27.3733C14.3298 27.4729 14.3812 27.5142 14.4809 27.5112C14.614 27.5073 14.7473 27.5114 14.8804 27.5101C15.0616 27.5084 15.0883 27.478 15.0438 27.2963C14.965 26.9752 14.9176 26.5815 14.7378 26.3338C14.7716 26.3166 14.8903 26.2723 14.9526 26.2389C15.2832 26.0618 15.4467 25.7437 15.3933 25.3837C15.3472 25.074 15.1458 24.8624 14.7587 24.8143C14.3746 24.7666 13.9833 24.7726 13.595 24.7684C13.5716 24.768 13.5231 24.7668 13.4958 24.7895C13.4658 24.8141 13.4577 24.8638 13.4518 24.8904C13.2697 25.7099 13.0967 26.5313 12.9218 27.3522C12.8995 27.4567 12.9421 27.5096 13.0487 27.51C13.1717 27.5104 13.295 27.5046 13.4175 27.512C13.5408 27.5196 13.6037 27.478 13.6267 27.3489C13.6707 27.1021 13.7265 26.8573 13.787 26.614C13.8002 26.5615 13.8126 26.4704 13.8463 26.4717C13.8463 26.4717 13.995 26.4585 14.0333 26.4636C14.0719 26.4687 14.168 26.6361 14.2314 26.8894Z" fill="#C3C3C3"/>
<path fill-rule="evenodd" clip-rule="evenodd" d="M11.5713 26.1886C11.6342 25.9045 11.6941 25.633 11.7557 25.3618C11.7598 25.3437 11.7776 25.3137 11.7876 25.3141C11.9281 25.3216 12.0781 25.307 12.2041 25.355C12.2665 25.3788 12.3175 25.5199 12.3167 25.6074C12.3137 25.9754 12.0048 26.222 11.5713 26.1886ZM12.4294 24.8178C12.2142 24.7762 11.7729 24.7565 11.7725 24.7608C11.6188 24.7608 11.4651 24.7614 11.3113 24.7606C11.2166 24.76 11.1578 24.7989 11.1374 24.8966C10.9648 25.7136 10.7912 26.53 10.6167 27.3467C10.5921 27.4617 10.6393 27.511 10.7521 27.5105C10.8801 27.5097 11.0085 27.5067 11.1364 27.5118C11.2411 27.5159 11.2966 27.4766 11.3161 27.3697C11.3464 27.2035 11.3958 27.0405 11.4221 26.874C11.4314 26.8146 11.4411 26.768 11.4718 26.7431C11.5025 26.7182 11.5539 26.715 11.6121 26.7069C11.8591 26.6729 12.1124 26.6392 12.3456 26.5563C12.7924 26.3975 13.0202 26.0591 13.0326 25.5825C13.0436 25.1645 12.8408 24.8974 12.4294 24.8178Z" fill="#C3C3C3"/>
<path fill-rule="evenodd" clip-rule="evenodd" d="M18.4436 25.1837C18.6822 24.6816 18.5305 24.7725 19.1017 24.7622C19.1373 24.7615 19.1733 24.7609 19.2089 24.7633C19.367 24.7738 19.4058 24.8329 19.3332 24.9692C18.8996 25.782 18.4654 26.5944 18.025 27.4034C17.9973 27.4539 17.918 27.5003 17.8593 27.5052C17.6966 27.519 17.532 27.5085 17.3682 27.5106C17.2657 27.5117 17.2256 27.4628 17.215 27.3627C17.1289 26.5588 17.0406 25.7552 16.949 24.9519C16.9336 24.8171 16.9843 24.7598 17.1159 24.7614C17.2488 24.7631 17.3821 24.7652 17.5151 24.7614C17.6549 24.7571 17.7009 24.824 17.7031 24.9585L17.7376 26.6903L18.4436 25.1837Z" fill="#C3C3C3"/>
<path fill-rule="evenodd" clip-rule="evenodd" d="M9.64731 26.2361C9.49272 26.2915 9.15082 26.3227 9.14271 26.3057C9.19705 26.1152 9.28729 25.9468 9.48748 25.8745C9.59154 25.8368 9.71499 25.8147 9.78013 25.9484C9.82812 26.0467 9.77012 26.1922 9.64731 26.2361ZM10.0396 25.4107C9.80603 25.3297 9.56676 25.3306 9.3286 25.3896C8.60936 25.5677 8.33482 26.2858 8.4079 26.8808C8.45143 27.2346 8.66592 27.4669 9.02149 27.5097C9.266 27.539 9.52212 27.5303 9.76599 27.4922C10.115 27.4375 10.1122 27.4194 10.1743 27.0713C10.212 26.8608 10.1768 26.8386 9.97174 26.8892C9.75996 26.9415 9.54309 26.9771 9.32638 27.003C9.22072 27.0157 9.12301 26.9734 9.10554 26.8165C9.17052 26.8117 9.22597 26.8085 9.28126 26.8034C9.59297 26.7756 9.90565 26.7475 10.1781 26.5716C10.4172 26.4174 10.5116 26.1903 10.4784 25.9123C10.4468 25.6482 10.2792 25.4938 10.0396 25.4107Z" fill="#C3C3C3"/>
<path fill-rule="evenodd" clip-rule="evenodd" d="M24.1172 27.3586C24.1011 27.5093 24.168 27.5097 24.4359 27.508C24.715 27.5062 24.769 27.5361 24.8018 27.4003L24.9994 26.4225L26.133 24.9861C26.1654 24.9435 26.1969 24.8803 26.1842 24.8339C26.1659 24.7669 26.0861 24.7727 26.0861 24.7727H25.5428C25.4505 24.7727 25.4414 24.8086 25.4414 24.8086C25.3146 24.9785 24.8078 25.754 24.7665 25.808C24.7441 25.7282 24.6049 25.1763 24.562 24.9504C24.5431 24.8515 24.5031 24.7961 24.4306 24.7765C24.4025 24.7689 23.9111 24.7738 23.886 24.7781C23.7808 24.7956 23.7698 24.8512 23.8196 24.995L24.3151 26.3917L24.1172 27.3586Z" fill="#C3C3C3"/>
<path fill-rule="evenodd" clip-rule="evenodd" d="M23.2389 26.9945C23.2369 26.91 23.1883 26.8871 23.0742 26.9093C22.9237 26.9384 22.7749 26.9821 22.6231 26.9969C22.3432 27.0239 22.2386 26.9251 22.2315 26.6411C22.2224 26.2799 22.316 25.9408 22.4854 25.6248C22.6565 25.3055 22.9299 25.2003 23.2752 25.3066C23.5928 25.4043 23.5896 25.4036 23.6625 25.07C23.6862 24.9612 23.6565 24.9008 23.5557 24.8525C23.4428 24.7982 23.2958 24.7259 23.0122 24.7097C22.4655 24.7097 22.1708 24.9159 21.9126 25.3091C21.6427 25.7203 21.5224 26.1772 21.534 26.6634C21.5475 27.2412 21.8708 27.542 22.4515 27.5433C22.5535 27.5436 22.6559 27.5321 22.7571 27.5191C23.1047 27.4745 23.1509 27.4656 23.2054 27.205C23.2132 27.1678 23.2394 27.0137 23.2389 26.9945Z" fill="#C3C3C3"/>
<path fill-rule="evenodd" clip-rule="evenodd" d="M16.583 24.7627C16.4653 24.7605 16.3472 24.7666 16.2298 24.7596C16.0908 24.7513 16.0328 24.8122 16.0048 24.948C15.8547 25.6796 15.6966 26.4097 15.5397 27.14C15.5271 27.198 15.5166 27.247 15.5091 27.2881C15.5053 27.3086 15.5023 27.3275 15.5004 27.3444C15.4982 27.3614 15.4971 27.3766 15.4971 27.3903C15.4961 27.5107 15.577 27.5104 15.8383 27.5101C15.9049 27.5101 15.9715 27.5078 16.0379 27.5107C16.1289 27.5144 16.1791 27.4765 16.1988 27.3846C16.3728 26.5689 16.5484 25.7537 16.7252 24.9386C16.7517 24.816 16.6988 24.7648 16.583 24.7627Z" fill="#C3C3C3"/>
<path fill-rule="evenodd" clip-rule="evenodd" d="M19.998 26.4366L20.4556 25.5101L20.4978 26.4366H19.998ZM21.2719 27.3056C21.2554 27.1324 21.2314 26.9601 21.2104 26.7875C21.1359 26.173 21.0587 25.5589 20.9884 24.9437C20.973 24.8074 20.9085 24.7574 20.7781 24.7625C20.6502 24.7672 20.5218 24.7696 20.3942 24.7612C20.2546 24.7521 20.171 24.8039 20.103 24.9312C19.6888 25.7078 19.266 26.4798 18.8466 27.2537L18.787 27.3514C18.7255 27.5077 18.8466 27.5096 18.8466 27.5096H19.379C19.4994 27.5096 19.5149 27.4426 19.5149 27.4426L19.7482 26.9736H20.4734C20.5579 26.9736 20.5504 27.0042 20.5504 27.0042C20.5504 27.0042 20.5477 27.1812 20.5579 27.3503C20.5684 27.5195 20.6478 27.5096 20.6478 27.5096H21.0855C21.273 27.5079 21.2895 27.4929 21.2719 27.3056Z" fill="#C3C3C3"/>
<path fill-rule="evenodd" clip-rule="evenodd" d="M20.0785 29.317C20.1246 29.3262 20.1738 29.3324 20.2474 29.3324C20.5151 29.3324 20.6905 29.1602 20.6905 28.9541C20.6905 28.7541 20.5458 28.6896 20.3737 28.6896C20.2906 28.6896 20.2321 28.6956 20.1951 28.7048L20.0785 29.317ZM19.82 28.3912C19.9522 28.3574 20.1613 28.3358 20.3613 28.3358C20.5458 28.3358 20.7612 28.3666 20.9118 28.4741C21.0502 28.5696 21.1363 28.714 21.1363 28.9141C21.1363 29.1754 21.0164 29.3724 20.8535 29.4984C20.6843 29.6308 20.4444 29.6891 20.1923 29.6891C20.1184 29.6891 20.0567 29.683 20.0107 29.6768L19.8693 30.4242H19.4355L19.82 28.3912Z" fill="white"/>
<path fill-rule="evenodd" clip-rule="evenodd" d="M21.5334 28.3512H21.9762L21.6564 30.0367H22.453L22.3792 30.4242H21.1396L21.5334 28.3512Z" fill="white"/>
<path fill-rule="evenodd" clip-rule="evenodd" d="M23.4714 28.3512L23.2437 29.5447C23.2285 29.6154 23.2223 29.6983 23.2223 29.7908C23.2223 29.9566 23.3238 30.086 23.5237 30.086C23.7542 30.086 23.9082 29.9322 23.9821 29.5477L24.2096 28.3512H24.6525L24.428 29.5292C24.3081 30.1567 24.0311 30.4582 23.4682 30.4582C23.0409 30.4582 22.7793 30.2397 22.7793 29.7968C22.7793 29.7075 22.7917 29.606 22.8102 29.5076L23.0286 28.3512H23.4714Z" fill="white"/>
<path fill-rule="evenodd" clip-rule="evenodd" d="M24.7355 29.9445C24.8585 30.0183 25.0339 30.0766 25.2245 30.0766C25.3967 30.0766 25.5536 29.9967 25.5536 29.8337C25.5536 29.7168 25.4644 29.6399 25.2738 29.5415C25.0523 29.4216 24.8432 29.2616 24.8432 28.9909C24.8432 28.5725 25.2091 28.3174 25.6613 28.3174C25.9134 28.3174 26.0612 28.3727 26.1503 28.4219L26.0119 28.791C25.9442 28.7541 25.7968 28.6957 25.6246 28.6987C25.4184 28.6987 25.3106 28.8032 25.3106 28.9171C25.3106 29.0371 25.4368 29.111 25.6122 29.2093C25.8642 29.3415 26.0242 29.5109 26.0242 29.7568C26.0242 30.2182 25.6428 30.4551 25.1816 30.4551C24.8923 30.4551 24.6862 30.3812 24.5879 30.3073L24.7355 29.9445Z" fill="white"/>
<path fill-rule="evenodd" clip-rule="evenodd" d="M30.1734 19.7126C29.971 19.1027 29.5243 18.8412 28.8438 18.9351C28.8236 18.9379 28.806 18.9408 28.7937 18.9416C28.4893 18.9544 28.1825 19.1794 27.6508 19.668C27.0146 17.7282 26.218 15.5201 25.6691 14.7739C24.8709 13.6887 23.9972 13.1295 23.2351 12.8481C24.5611 12.1246 25.4606 10.7179 25.4606 9.10097C25.4606 6.74496 23.5506 4.83508 21.1946 4.83508C18.8387 4.83508 16.9288 6.74496 16.9288 9.10097C16.9288 10.736 17.8491 12.1556 19.1994 12.8716C18.4615 13.1601 17.5922 13.7177 16.7204 14.7739C16.0598 15.5741 15.1912 18.2506 14.5841 20.3341C14.2896 20.2974 13.9988 20.252 13.7124 20.1988C14.4747 17.8734 15.2474 15.6442 15.6092 14.9896C16.4486 13.4709 17.5837 12.7434 17.5837 12.7434C14.6831 9.4513 16.8307 6.44516 17.2545 5.91514C16.9932 5.86096 16.7223 5.83236 16.4447 5.83236C14.2478 5.83236 12.4669 7.61339 12.4669 9.8102C12.4669 11.3348 13.325 12.6584 14.5841 13.3262C13.8962 13.5952 13.0856 14.1152 12.2726 15.0999C11.7567 15.7246 11.1055 17.5755 10.5748 19.3016C10.2987 19.1956 10.0334 19.0866 9.77837 18.9764C10.1999 17.7324 10.6026 16.5938 10.8689 15.9569C11.6843 14.0065 12.9952 13.2871 12.9952 13.2871C12.9952 13.2871 10.0823 10.4506 12.5956 6.82122C12.2942 6.74464 11.9785 6.70365 11.6534 6.70365C9.54609 6.70365 7.83783 8.41191 7.83783 10.5191C7.83783 11.9816 8.66098 13.2512 9.86878 13.8916C9.20879 14.1496 8.50385 14.6484 7.72407 15.5931C7.45382 15.9203 7.13956 16.5989 6.82419 17.4168C6.55362 17.2436 6.40236 17.1353 6.39442 17.1296C6.19471 16.9845 5.91477 17.0285 5.76923 17.2285C5.62386 17.4284 5.66803 17.7084 5.8679 17.8537C6.05172 17.9877 10.4328 21.1338 15.7511 21.3286C20.879 21.516 23.3733 19.9752 24.5717 19.2347L24.7395 19.1316C24.8168 19.0842 25.0787 18.9376 25.1945 19.035C25.314 19.1359 25.3953 19.488 25.2371 19.8871C24.9996 20.4857 24.2651 21.2061 23.7209 21.5302C23.3774 21.735 23.1284 22.1972 23.3253 22.587C23.7006 23.3306 24.9829 22.7925 25.4044 22.6155C26.1808 22.2895 27.0438 21.4716 27.8054 20.7501C28.179 20.3959 28.6874 19.9142 28.8681 19.8337C28.897 19.8311 28.9302 19.827 28.9666 19.8219C29.2141 19.7876 29.2578 19.7967 29.3234 19.9945C29.4256 20.3019 30.2082 23.0878 26.3414 26.2184C26.1492 26.3741 26.1195 26.6559 26.275 26.848C26.3637 26.9573 26.4929 27.014 26.6233 27.014C26.7221 27.014 26.8219 26.9815 26.9047 26.9143C30.1966 24.2492 30.7228 21.3692 30.1734 19.7126Z" fill="white"/>
</g>
<defs>
<radialGradient id="paint0_radial_3501_1278" cx="0" cy="0" r="1" gradientUnits="userSpaceOnUse" gradientTransform="translate(11.4436 4.21135) scale(31.0439 31.044)">
<stop stop-color="#BCBCBA"/>
<stop offset="1" stop-color="#676766"/>
</radialGradient>
<clipPath id="clip0_3501_1278">
<rect width="34" height="34" fill="white" transform="translate(0.333008)"/>
</clipPath>
</defs>
</svg>
