<svg width="22" height="24" viewBox="0 0 22 24" fill="none" xmlns="http://www.w3.org/2000/svg">
<path d="M7.66602 19C7.66602 19.884 8.01717 20.7317 8.64223 21.3568C9.26729 21.9818 10.115 22.333 10.999 22.333C11.883 22.333 12.7307 21.9818 13.3558 21.3568C13.9809 20.7317 14.332 19.884 14.332 19" stroke="#333333" stroke-width="1.6"/>
<path fill-rule="evenodd" clip-rule="evenodd" d="M20.998 18.738H1L1.013 18.708C1.089 18.573 1.484 18.004 2.199 16.999L2.949 15.949V9.314C2.949 4.829 6.387 1.174 10.69 1.006L11 1C15.446 1 19.05 4.722 19.05 9.314V15.948L20.757 18.359C20.93 18.612 21.011 18.739 20.999 18.739L20.998 18.738Z" stroke="#333333" stroke-width="1.6" stroke-linecap="round" stroke-linejoin="round"/>
</svg>
