<svg width="58" height="59" viewBox="0 0 58 59" fill="none" xmlns="http://www.w3.org/2000/svg">
<g filter="url(#filter0_ddd_1_263)">
<path d="M29 54C42.8071 54 54 42.8071 54 29C54 15.1929 42.8071 4 29 4C15.1929 4 4 15.1929 4 29C4 42.8071 15.1929 54 29 54Z" fill="black"/>
</g>
<path d="M29 54C42.8071 54 54 42.8071 54 29C54 15.1929 42.8071 4 29 4C15.1929 4 4 15.1929 4 29C4 42.8071 15.1929 54 29 54Z" fill="white"/>
<path d="M26.285 37.699C26.4552 37.8731 26.6831 37.9792 26.926 37.9972C27.1688 38.0152 27.4099 37.9441 27.604 37.797L27.699 37.715L35.699 29.898C35.8712 29.7298 35.9769 29.5051 35.9967 29.2652C36.0166 29.0252 35.9492 28.7862 35.807 28.592L35.727 28.496L28.004 20.314C27.8295 20.1289 27.591 20.0173 27.337 20.0019C27.0831 19.9864 26.8328 20.0684 26.6372 20.231C26.4415 20.3936 26.3152 20.6247 26.284 20.8772C26.2527 21.1297 26.3189 21.3846 26.469 21.59L26.549 21.686L33.598 29.155L26.301 36.285C26.1269 36.4552 26.0208 36.6831 26.0028 36.926C25.9847 37.1688 26.0559 37.4099 26.203 37.604L26.285 37.699Z" fill="#333333"/>
<defs>
<filter id="filter0_ddd_1_263" x="0" y="0" width="58" height="59" filterUnits="userSpaceOnUse" color-interpolation-filters="sRGB">
<feFlood flood-opacity="0" result="BackgroundImageFix"/>
<feColorMatrix in="SourceAlpha" type="matrix" values="0 0 0 0 0 0 0 0 0 0 0 0 0 0 0 0 0 0 127 0" result="hardAlpha"/>
<feOffset/>
<feGaussianBlur stdDeviation="2"/>
<feColorMatrix type="matrix" values="0 0 0 0 0 0 0 0 0 0 0 0 0 0 0 0 0 0 0.08 0"/>
<feBlend mode="normal" in2="BackgroundImageFix" result="effect1_dropShadow_1_263"/>
<feColorMatrix in="SourceAlpha" type="matrix" values="0 0 0 0 0 0 0 0 0 0 0 0 0 0 0 0 0 0 127 0" result="hardAlpha"/>
<feOffset dy="1"/>
<feGaussianBlur stdDeviation="2"/>
<feColorMatrix type="matrix" values="0 0 0 0 0 0 0 0 0 0 0 0 0 0 0 0 0 0 0.03 0"/>
<feBlend mode="normal" in2="effect1_dropShadow_1_263" result="effect2_dropShadow_1_263"/>
<feColorMatrix in="SourceAlpha" type="matrix" values="0 0 0 0 0 0 0 0 0 0 0 0 0 0 0 0 0 0 127 0" result="hardAlpha"/>
<feOffset/>
<feGaussianBlur stdDeviation="2"/>
<feColorMatrix type="matrix" values="0 0 0 0 0 0 0 0 0 0 0 0 0 0 0 0 0 0 0.02 0"/>
<feBlend mode="normal" in2="effect2_dropShadow_1_263" result="effect3_dropShadow_1_263"/>
<feBlend mode="normal" in="SourceGraphic" in2="effect3_dropShadow_1_263" result="shape"/>
</filter>
</defs>
</svg>
