<svg width="103" height="32" viewBox="0 0 103 32" fill="none" xmlns="http://www.w3.org/2000/svg">
<g clip-path="url(#clip0_3501_1299)">
<g opacity="0.5">
<path d="M21.4049 19.7604V24.7033H19.0039V11.4528H21.3878V12.7673C22.0183 11.8383 23.0878 11.2601 24.367 11.2601C26.7509 11.2601 28.9233 13.1704 28.9233 16.1871C28.9233 19.2038 26.7151 21.1124 24.3841 21.1124C23.1054 21.1101 22.036 20.6371 21.4049 19.7604ZM26.5053 16.1678C26.5053 14.6776 25.3489 13.5036 23.894 13.5036C22.4044 13.5036 21.265 14.6975 21.265 16.1678C21.265 17.638 22.4021 18.8314 23.894 18.8314C25.3489 18.8314 26.5053 17.6574 26.5053 16.1678Z" fill="black"/>
<path d="M50.8691 11.4528H53.2855V12.5746C53.8637 11.7524 54.775 11.2601 55.9144 11.2601C57.3358 11.2601 58.2983 11.8383 58.8066 12.8548C59.4024 11.8735 60.4713 11.2629 61.7682 11.2629C64.1697 11.2629 65.379 12.7349 65.379 15.1012V20.9174H62.8899V15.448C62.8899 14.1682 62.364 13.3796 61.1376 13.3796C60.0506 13.3796 59.3319 14.1187 59.3319 15.6055V20.9174H56.861V15.3786C56.861 14.117 56.3351 13.3808 55.1605 13.3808C54.0234 13.3808 53.3031 14.1346 53.3031 15.6595V20.9174H50.8691V11.4528Z" fill="black"/>
<path d="M71.5137 11.276C69.4948 11.276 67.8261 12.3977 67.0398 14.0437C66.7172 14.7231 66.5511 15.4662 66.5537 16.2184C66.5537 18.9701 68.5163 21.1261 71.566 21.1261C73.5616 21.1261 74.8636 20.3386 75.8045 19.1043L73.8265 17.9621C73.3495 18.6262 72.6326 19.0423 71.6013 19.0423C70.1992 19.0423 69.1997 18.2708 68.8847 17.0439H76.3407C76.3816 16.7712 76.4023 16.4958 76.4026 16.2201V16.1302C76.4038 13.3267 74.3507 11.276 71.5137 11.276ZM68.9552 15.1495C69.3407 14.0454 70.2873 13.3267 71.5137 13.3267C72.7753 13.3267 73.6867 13.9754 74.0022 15.1495H68.9552Z" fill="black"/>
<path d="M77.6104 11.4528H80.0289V12.6468C80.6424 11.7883 81.6208 11.2623 82.7983 11.2623C85.0418 11.2623 86.4614 12.7343 86.4614 15.2058V20.9174H83.9901V15.5731C83.9901 14.2239 83.3412 13.3825 82.062 13.3825C80.9249 13.3825 80.0465 14.2239 80.0465 15.6959V20.9174H77.6104V11.4528Z" fill="black"/>
<path d="M87.1045 11.4528H88.8568V9.40203L91.2407 8V11.4528H93.7292V13.5911H91.2407V17.4822C91.2407 18.4812 91.6614 18.8314 92.2749 18.8314C92.6075 18.8314 92.8707 18.7262 93.151 18.4812L94.2551 20.3739C93.6417 20.8287 92.8707 21.0925 91.994 21.0925C90.0138 21.0925 88.8568 20.1459 88.8568 17.5675V13.5877H87.1045V11.4528Z" fill="black"/>
<path d="M37.2173 12.6621C36.5691 11.786 35.5349 11.2601 34.2904 11.2601C31.8718 11.2601 29.6982 13.1704 29.6982 16.1848C29.6982 19.1993 31.9241 21.1101 34.2557 21.1101C35.4826 21.1101 36.5515 20.549 37.2173 19.6205V20.9174H39.6012V11.4557H37.2173V12.6621ZM34.7287 18.8314C33.2738 18.8314 32.0998 17.6574 32.0998 16.1678C32.0998 14.6782 33.2738 13.5036 34.7287 13.5036C36.2183 13.5036 37.3577 14.6975 37.3577 16.1678C37.3577 17.638 36.2183 18.8314 34.7287 18.8314Z" fill="black"/>
<path d="M47.6701 11.4528L45.3391 17.5522L42.8852 11.4528H40.3086L44.1121 20.5143L44.1616 20.6326L42.6271 24.6476L42.6191 24.6681H45.1429L50.1939 11.4528H47.6701Z" fill="black"/>
<path d="M96.5134 17.8558C96.9364 18.6955 97.6915 19.1315 98.6904 19.1292C99.6723 19.1264 100.197 18.6523 100.196 18.0912C100.196 17.4089 99.1765 17.2525 97.9661 17.0109C96.3702 16.6823 94.598 16.1961 94.5923 14.1978C94.5883 12.6058 96.1274 11.214 98.4584 11.2254C100.311 11.2203 101.471 11.865 102.333 12.9629L100.325 14.1301C99.9372 13.5001 99.3402 13.1334 98.4635 13.1357C97.5169 13.1385 97.0621 13.5252 97.0638 14.0511C97.0638 14.6469 97.837 14.8027 99.2243 15.0972C100.802 15.4082 102.663 15.9466 102.668 17.9797C102.672 19.4523 101.36 21.1209 98.6091 21.1107C96.5339 21.1164 95.162 20.4006 94.3677 19.1032L94.3643 19.0975L96.5134 17.8558Z" fill="black"/>
<path d="M15.2218 15.6026C15.0421 14.0644 14.308 12.6443 13.1568 11.6083C12.0057 10.5722 10.5164 9.9912 8.96776 9.974H8.89726C8.65028 9.97411 8.40351 9.98834 8.15815 10.0167C7.29023 10.1166 6.45231 10.3947 5.69692 10.8337C5.68043 10.8433 5.66508 10.853 5.64859 10.8621L5.60652 10.8871C1.96555 13.0555 0.666992 18.0633 0.666992 21.1101L3.59898 19.4176C4.6326 21.3864 6.61512 22.6839 8.82563 22.7077H8.89613C9.14312 22.7074 9.38989 22.693 9.63524 22.6645C11.3125 22.4687 12.8432 21.6148 13.8909 20.2904C14.9385 18.9661 15.4173 17.2799 15.2218 15.6026Z" fill="black"/>
</g>
</g>
<defs>
<clipPath id="clip0_3501_1299">
<rect width="102" height="32" fill="white" transform="translate(0.666992)"/>
</clipPath>
</defs>
</svg>
